<svg width="36" height="41" viewBox="0 0 36 41" fill="none" xmlns="http://www.w3.org/2000/svg">
<ellipse cx="26.4764" cy="8.26118" rx="8.18644" ry="8.42697" transform="rotate(89.4896 26.4764 8.26118)" fill="white"/>
<ellipse cx="26.4764" cy="8.26118" rx="8.18644" ry="8.42697" transform="rotate(89.4896 26.4764 8.26118)" fill="white"/>
<ellipse cx="26.4764" cy="8.26118" rx="8.18644" ry="8.42697" transform="rotate(89.4896 26.4764 8.26118)" fill="white"/>
<ellipse cx="26.4764" cy="8.26118" rx="8.18644" ry="8.42697" transform="rotate(89.4896 26.4764 8.26118)" fill="white"/>
<ellipse cx="26.4764" cy="8.26118" rx="8.18644" ry="8.42697" transform="rotate(89.4896 26.4764 8.26118)" fill="white"/>
<ellipse cx="26.4764" cy="8.26118" rx="8.18644" ry="8.42697" transform="rotate(89.4896 26.4764 8.26118)" fill="white"/>
<ellipse cx="26.4764" cy="8.26118" rx="8.18644" ry="8.42697" transform="rotate(89.4896 26.4764 8.26118)" fill="white"/>
<ellipse cx="26.4764" cy="8.26118" rx="8.18644" ry="8.42697" transform="rotate(89.4896 26.4764 8.26118)" fill="white"/>
<ellipse cx="26.4764" cy="8.26118" rx="8.18644" ry="8.42697" transform="rotate(89.4896 26.4764 8.26118)" fill="white"/>
<ellipse cx="26.4764" cy="8.26118" rx="8.18644" ry="8.42697" transform="rotate(89.4896 26.4764 8.26118)" fill="white"/>
<ellipse cx="26.4764" cy="8.26118" rx="8.18644" ry="8.42697" transform="rotate(89.4896 26.4764 8.26118)" fill="white"/>
<ellipse cx="4.08316" cy="17.1932" rx="3.82034" ry="3.93258" transform="rotate(89.4896 4.08316 17.1932)" fill="white"/>
<ellipse cx="4.08316" cy="17.1932" rx="3.82034" ry="3.93258" transform="rotate(89.4896 4.08316 17.1932)" fill="white"/>
<ellipse cx="4.08316" cy="17.1932" rx="3.82034" ry="3.93258" transform="rotate(89.4896 4.08316 17.1932)" fill="white"/>
<ellipse cx="4.08316" cy="17.1932" rx="3.82034" ry="3.93258" transform="rotate(89.4896 4.08316 17.1932)" fill="white"/>
<ellipse cx="4.08316" cy="17.1932" rx="3.82034" ry="3.93258" transform="rotate(89.4896 4.08316 17.1932)" fill="white"/>
<ellipse cx="4.08316" cy="17.1932" rx="3.82034" ry="3.93258" transform="rotate(89.4896 4.08316 17.1932)" fill="white"/>
<ellipse cx="4.08316" cy="17.1932" rx="3.82034" ry="3.93258" transform="rotate(89.4896 4.08316 17.1932)" fill="white"/>
<ellipse cx="4.08316" cy="17.1932" rx="3.82034" ry="3.93258" transform="rotate(89.4896 4.08316 17.1932)" fill="white"/>
<ellipse cx="4.08316" cy="17.1932" rx="3.82034" ry="3.93258" transform="rotate(89.4896 4.08316 17.1932)" fill="white"/>
<ellipse cx="4.08316" cy="17.1932" rx="3.82034" ry="3.93258" transform="rotate(89.4896 4.08316 17.1932)" fill="white"/>
<ellipse cx="4.08316" cy="17.1932" rx="3.82034" ry="3.93258" transform="rotate(89.4896 4.08316 17.1932)" fill="white"/>
<ellipse cx="18.8643" cy="36.7098" rx="3.82034" ry="3.93258" transform="rotate(89.4896 18.8643 36.7098)" fill="white"/>
<ellipse cx="18.8643" cy="36.7098" rx="3.82034" ry="3.93258" transform="rotate(89.4896 18.8643 36.7098)" fill="white"/>
<ellipse cx="18.8643" cy="36.7098" rx="3.82034" ry="3.93258" transform="rotate(89.4896 18.8643 36.7098)" fill="white"/>
<ellipse cx="18.8643" cy="36.7098" rx="3.82034" ry="3.93258" transform="rotate(89.4896 18.8643 36.7098)" fill="white"/>
<ellipse cx="18.8643" cy="36.7098" rx="3.82034" ry="3.93258" transform="rotate(89.4896 18.8643 36.7098)" fill="white"/>
<ellipse cx="18.8643" cy="36.7098" rx="3.82034" ry="3.93258" transform="rotate(89.4896 18.8643 36.7098)" fill="white"/>
<ellipse cx="18.8643" cy="36.7098" rx="3.82034" ry="3.93258" transform="rotate(89.4896 18.8643 36.7098)" fill="white"/>
<ellipse cx="18.8643" cy="36.7098" rx="3.82034" ry="3.93258" transform="rotate(89.4896 18.8643 36.7098)" fill="white"/>
<ellipse cx="18.8643" cy="36.7098" rx="3.82034" ry="3.93258" transform="rotate(89.4896 18.8643 36.7098)" fill="white"/>
<ellipse cx="18.8643" cy="36.7098" rx="3.82034" ry="3.93258" transform="rotate(89.4896 18.8643 36.7098)" fill="white"/>
<ellipse cx="18.8643" cy="36.7098" rx="3.82034" ry="3.93258" transform="rotate(89.4896 18.8643 36.7098)" fill="white"/>
</svg>
