<svg width="51" height="56" viewBox="0 0 51 56" fill="none" xmlns="http://www.w3.org/2000/svg">
<ellipse cx="8.39362" cy="8.22063" rx="8.39362" ry="8.22063" transform="matrix(-0.774038 0.633139 0.61744 0.786618 27.4013 3.00061)" fill="white"/>
<ellipse cx="8.39362" cy="8.22063" rx="8.39362" ry="8.22063" transform="matrix(-0.774038 0.633139 0.61744 0.786618 27.4013 3.00061)" fill="white"/>
<ellipse cx="8.39362" cy="8.22063" rx="8.39362" ry="8.22063" transform="matrix(-0.774038 0.633139 0.61744 0.786618 27.4013 3.00061)" fill="white"/>
<ellipse cx="8.39362" cy="8.22063" rx="8.39362" ry="8.22063" transform="matrix(-0.774038 0.633139 0.61744 0.786618 27.4013 3.00061)" fill="white"/>
<ellipse cx="8.39362" cy="8.22063" rx="8.39362" ry="8.22063" transform="matrix(-0.774038 0.633139 0.61744 0.786618 27.4013 3.00061)" fill="white"/>
<ellipse cx="8.39362" cy="8.22063" rx="8.39362" ry="8.22063" transform="matrix(-0.774038 0.633139 0.61744 0.786618 27.4013 3.00061)" fill="white"/>
<ellipse cx="8.39362" cy="8.22063" rx="8.39362" ry="8.22063" transform="matrix(-0.774038 0.633139 0.61744 0.786618 27.4013 3.00061)" fill="white"/>
<ellipse cx="8.39362" cy="8.22063" rx="8.39362" ry="8.22063" transform="matrix(-0.774038 0.633139 0.61744 0.786618 27.4013 3.00061)" fill="white"/>
<ellipse cx="8.39362" cy="8.22063" rx="8.39362" ry="8.22063" transform="matrix(-0.774038 0.633139 0.61744 0.786618 27.4013 3.00061)" fill="white"/>
<ellipse cx="8.39362" cy="8.22063" rx="8.39362" ry="8.22063" transform="matrix(-0.774038 0.633139 0.61744 0.786618 27.4013 3.00061)" fill="white"/>
<ellipse cx="8.39362" cy="8.22063" rx="8.39362" ry="8.22063" transform="matrix(-0.774038 0.633139 0.61744 0.786618 27.4013 3.00061)" fill="white"/>
<ellipse cx="3.91702" cy="3.83629" rx="3.91702" ry="3.83629" transform="matrix(-0.774038 0.633139 0.61744 0.786618 33.2484 32.1964)" fill="white"/>
<ellipse cx="3.91702" cy="3.83629" rx="3.91702" ry="3.83629" transform="matrix(-0.774038 0.633139 0.61744 0.786618 33.2484 32.1964)" fill="white"/>
<ellipse cx="3.91702" cy="3.83629" rx="3.91702" ry="3.83629" transform="matrix(-0.774038 0.633139 0.61744 0.786618 33.2484 32.1964)" fill="white"/>
<ellipse cx="3.91702" cy="3.83629" rx="3.91702" ry="3.83629" transform="matrix(-0.774038 0.633139 0.61744 0.786618 33.2484 32.1964)" fill="white"/>
<ellipse cx="3.91702" cy="3.83629" rx="3.91702" ry="3.83629" transform="matrix(-0.774038 0.633139 0.61744 0.786618 33.2484 32.1964)" fill="white"/>
<ellipse cx="3.91702" cy="3.83629" rx="3.91702" ry="3.83629" transform="matrix(-0.774038 0.633139 0.61744 0.786618 33.2484 32.1964)" fill="white"/>
<ellipse cx="3.91702" cy="3.83629" rx="3.91702" ry="3.83629" transform="matrix(-0.774038 0.633139 0.61744 0.786618 33.2484 32.1964)" fill="white"/>
<ellipse cx="3.91702" cy="3.83629" rx="3.91702" ry="3.83629" transform="matrix(-0.774038 0.633139 0.61744 0.786618 33.2484 32.1964)" fill="white"/>
<ellipse cx="3.91702" cy="3.83629" rx="3.91702" ry="3.83629" transform="matrix(-0.774038 0.633139 0.61744 0.786618 33.2484 32.1964)" fill="white"/>
<ellipse cx="3.91702" cy="3.83629" rx="3.91702" ry="3.83629" transform="matrix(-0.774038 0.633139 0.61744 0.786618 33.2484 32.1964)" fill="white"/>
<ellipse cx="3.91702" cy="3.83629" rx="3.91702" ry="3.83629" transform="matrix(-0.774038 0.633139 0.61744 0.786618 33.2484 32.1964)" fill="white"/>
<ellipse cx="3.91702" cy="3.83629" rx="3.91702" ry="3.83629" transform="matrix(-0.774038 0.633139 0.61744 0.786618 9.72401 33.0336)" fill="white"/>
<ellipse cx="3.91702" cy="3.83629" rx="3.91702" ry="3.83629" transform="matrix(-0.774038 0.633139 0.61744 0.786618 9.72401 33.0336)" fill="white"/>
<ellipse cx="3.91702" cy="3.83629" rx="3.91702" ry="3.83629" transform="matrix(-0.774038 0.633139 0.61744 0.786618 9.72401 33.0336)" fill="white"/>
<ellipse cx="3.91702" cy="3.83629" rx="3.91702" ry="3.83629" transform="matrix(-0.774038 0.633139 0.61744 0.786618 9.72401 33.0336)" fill="white"/>
<ellipse cx="3.91702" cy="3.83629" rx="3.91702" ry="3.83629" transform="matrix(-0.774038 0.633139 0.61744 0.786618 9.72401 33.0336)" fill="white"/>
<ellipse cx="3.91702" cy="3.83629" rx="3.91702" ry="3.83629" transform="matrix(-0.774038 0.633139 0.61744 0.786618 9.72401 33.0336)" fill="white"/>
<ellipse cx="3.91702" cy="3.83629" rx="3.91702" ry="3.83629" transform="matrix(-0.774038 0.633139 0.61744 0.786618 9.72401 33.0336)" fill="white"/>
<ellipse cx="3.91702" cy="3.83629" rx="3.91702" ry="3.83629" transform="matrix(-0.774038 0.633139 0.61744 0.786618 9.72401 33.0336)" fill="white"/>
<ellipse cx="3.91702" cy="3.83629" rx="3.91702" ry="3.83629" transform="matrix(-0.774038 0.633139 0.61744 0.786618 9.72401 33.0336)" fill="white"/>
<ellipse cx="3.91702" cy="3.83629" rx="3.91702" ry="3.83629" transform="matrix(-0.774038 0.633139 0.61744 0.786618 9.72401 33.0336)" fill="white"/>
<ellipse cx="3.91702" cy="3.83629" rx="3.91702" ry="3.83629" transform="matrix(-0.774038 0.633139 0.61744 0.786618 9.72401 33.0336)" fill="white"/>
</svg>
